<svg width="179" height="71" viewBox="0 0 179 71" fill="none" xmlns="http://www.w3.org/2000/svg">
<g id="Group 427319181">
<path id="Series 12" d="M29.6051 31.3483C28.1833 31.599 27.2339 32.9549 27.4846 34.3767C27.7353 35.7985 29.0911 36.7479 30.513 36.4972L170.563 11.8027C171.984 11.552 172.934 10.1961 172.683 8.77429C172.432 7.35247 171.076 6.40309 169.655 6.65379L29.6051 31.3483Z" fill="#437EF7"/>
<path id="Series 13" d="M34.1445 57.0927C32.7227 57.3434 31.7733 58.6992 32.024 60.1211C32.2747 61.5429 33.6306 62.4923 35.0524 62.2416L175.102 37.5471C176.524 37.2963 177.473 35.9405 177.222 34.5187C176.972 33.0969 175.616 32.1475 174.194 32.3982L34.1445 57.0927Z" fill="#F04438"/>
<circle id="Ellipse 271" cx="8.07045" cy="35.6759" r="6.7968" transform="rotate(-10 8.07045 35.6759)" fill="#437EF7"/>
<circle id="Ellipse 272" cx="12.7915" cy="62.4503" r="6.7968" transform="rotate(-10 12.7915 62.4503)" fill="#F04438"/>
</g>
</svg>
