<svg width="179" height="71" viewBox="0 0 179 71" fill="none" xmlns="http://www.w3.org/2000/svg">
<g id="Group 427319181">
<path id="Series 12" d="M29.7452 31.4298C28.3233 31.6806 27.374 33.0364 27.6247 34.4582V34.4582C27.8754 35.88 29.2312 36.8294 30.653 36.5787L170.703 11.8842C172.124 11.6335 173.074 10.2777 172.823 8.85583V8.85583C172.572 7.43401 171.217 6.48463 169.795 6.73534L29.7452 31.4298Z" fill="#437EF7"/>
<path id="Series 13" d="M34.2846 57.1742C32.8628 57.4249 31.9134 58.7808 32.1641 60.2026V60.2026C32.4148 61.6244 33.7706 62.5738 35.1925 62.3231L175.242 37.6286C176.664 37.3779 177.613 36.022 177.363 34.6002V34.6002C177.112 33.1784 175.756 32.229 174.334 32.4797L34.2846 57.1742Z" fill="#FFC772"/>
<circle id="Ellipse 271" cx="8.21053" cy="35.7574" r="6.7968" transform="rotate(-10 8.21053 35.7574)" fill="#437EF7"/>
<circle id="Ellipse 272" cx="12.9316" cy="62.5318" r="6.7968" transform="rotate(-10 12.9316 62.5318)" fill="#FFC772"/>
</g>
</svg>
