<svg width="183" height="183" viewBox="0 0 183 183" fill="none" xmlns="http://www.w3.org/2000/svg">
<path id="Slice 4" d="M77.6239 12.9174C76.5323 6.72656 80.6728 0.747271 86.9515 0.436032C102.03 -0.311419 117.122 2.70024 130.841 9.28076C147.996 17.5093 162.143 30.9047 171.294 47.5856C180.446 64.2665 184.142 83.3951 181.865 102.285C179.587 121.174 171.45 138.876 158.596 152.904C145.742 166.931 128.817 176.58 110.198 180.496C91.5786 184.411 72.2007 182.395 54.7857 174.733C37.3706 167.07 22.7932 154.145 13.1008 137.772C5.34964 124.678 1.03407 109.906 0.464497 94.82C0.227326 88.5381 5.82299 83.8922 12.0854 84.4401V84.4401C18.3479 84.988 22.8812 90.5351 23.3799 96.8017C24.2014 107.125 27.3646 117.178 32.6906 126.175C39.9598 138.455 50.8929 148.149 63.9542 153.896C77.0155 159.643 91.5489 161.154 105.513 158.218C119.478 155.281 132.172 148.045 141.812 137.524C151.453 127.003 157.556 113.727 159.264 99.5596C160.972 85.3924 158.199 71.046 151.336 58.5353C144.472 46.0246 133.862 35.9781 120.996 29.8067C111.569 25.2851 101.278 23.0101 90.9228 23.0915C84.6366 23.1409 78.7155 19.1083 77.6239 12.9174V12.9174Z" fill="#437EF7"/>
</svg>
