<svg width="20" height="20" viewBox="0 0 20 20" fill="none" xmlns="http://www.w3.org/2000/svg">
<g id="Social platforms logo" clip-path="url(#clip0_1_11690)">
<g id="Vertical container">
<path id="Oval" d="M10 20C15.5228 20 20 15.5228 20 10C20 4.47715 15.5228 0 10 0C4.47715 0 0 4.47715 0 10C0 15.5228 4.47715 20 10 20Z" fill="#272D37"/>
<path id="Path 3" fill-rule="evenodd" clip-rule="evenodd" d="M4.52666 9.89446C7.44186 8.62435 9.38579 7.78702 10.3584 7.38246C13.1355 6.22737 13.7126 6.02672 14.0887 6.02009C14.1714 6.01863 14.3564 6.03913 14.4762 6.13635C14.5774 6.21844 14.6052 6.32934 14.6185 6.40717C14.6319 6.485 14.6484 6.6623 14.6353 6.80083C14.4848 8.38207 13.8336 12.2193 13.5023 13.9903C13.3621 14.7397 13.0861 14.991 12.8189 15.0155C12.2382 15.069 11.7972 14.6318 11.2348 14.2631C10.3546 13.6861 9.85741 13.327 9.00309 12.764C8.01578 12.1134 8.65581 11.7558 9.21848 11.1714C9.36573 11.0184 11.9244 8.69115 11.9739 8.48002C11.9801 8.45362 11.9859 8.3552 11.9274 8.30323C11.8689 8.25125 11.7826 8.26903 11.7203 8.28316C11.6321 8.3032 10.226 9.23252 7.50228 11.0711C7.10319 11.3452 6.7417 11.4787 6.41782 11.4717C6.06077 11.464 5.37395 11.2698 4.86336 11.1039C4.23711 10.9003 3.73938 10.7927 3.78272 10.4469C3.8053 10.2669 4.05328 10.0827 4.52666 9.89446Z" fill="white"/>
</g>
</g>
<defs>
<clipPath id="clip0_1_11690">
<rect width="20" height="20" fill="white"/>
</clipPath>
</defs>
</svg>
